<svg xmlns="http://www.w3.org/2000/svg" width="158" height="86" fill="none"><path fill="#fff" d="M28.59 45.97 8.93 15.09v30.88H0V0h10.18l18.28 29.56V0h9v45.97h-8.87Zm34.69 0v-4.78c-2.35 3.88-5.88 5.68-10.59 5.68-6.78 0-11.56-5.05-11.56-12.53V11.91h9v21.05c0 4.29 1.94 6.37 5.75 6.37 4.57 0 6.99-3.25 6.99-7.75V11.92h8.93v34.06h-8.52v-.01Zm31.78-22.43h8.38v9.69c0 7.2-4.15 13.64-13.78 13.64-9.63 0-13.92-6.37-13.92-13.71V2.7h8.86v9.21h18.83v6.37H84.6v13.98c0 4.29 1.52 6.78 5.19 6.78 3.67 0 5.26-2.42 5.26-6.65v-8.86l.01.01Zm12.04 22.43V11.91h8.45v4.08c2.98-4.57 6.44-4.98 10.11-4.98h1.18v9.21c-.83-.14-1.66-.21-2.49-.21-5.54 0-8.24 2.77-8.24 8.24v17.72h-9.01Zm41.89 0c-.28-.83-.48-2.01-.55-3.05-2.15 2.35-5.75 3.95-10.31 3.95-7.75 0-11.35-3.81-11.35-9.35 0-9.83 6.58-10.94 15.65-12.18 4.5-.62 5.75-1.52 5.75-3.88 0-2.22-2.22-3.53-5.75-3.53-4.08 0-5.75 2.01-6.16 5.05h-8.38c.14-7.06 4.01-11.98 14.95-11.98s14.54 4.85 14.54 13.43v21.53H149l-.01.01Zm-.63-16.68c-.9.9-2.49 1.38-5.81 2.01-5.12.97-6.79 2.42-6.79 5.33 0 2.56 1.52 3.81 4.36 3.81 4.64 0 8.1-3.39 8.17-7.41l.07-3.74ZM28.68 73.24c-.89 7.23-6.79 12.12-14.34 12.12C5.84 85.36 0 79.71 0 68.55 0 57.39 5.84 52.5 14.59 52.5c8.12 0 13.64 4.63 14.15 11.99h-8.31c-.44-3.24-2.79-5.14-5.9-5.14-3.49 0-6.34 2.22-6.34 9.01 0 6.79 2.85 10.09 6.09 10.09 3.24 0 5.77-1.84 6.09-5.2h8.31v-.01Zm1.71-4.31c0-9.9 6.15-16.43 16.05-16.43S62.3 58.97 62.3 68.93s-6.15 16.43-15.86 16.43c-9.71 0-16.05-6.73-16.05-16.43Zm23.6 0c0-6.34-2.54-9.45-7.55-9.45s-7.55 3.11-7.55 9.45 2.54 9.52 7.55 9.52 7.55-3.17 7.55-9.52Zm11.3 15.6V53.32h7.74v3.74c2.73-4.19 5.9-4.57 9.26-4.57h1.08v8.44c-.76-.13-1.52-.19-2.28-.19-5.08 0-7.55 2.54-7.55 7.55v16.24h-8.25ZM91.3 71.08c.25 4.69 2.92 7.74 6.98 7.74 2.67 0 5.01-1.33 5.58-3.49h8.5c-1.9 6.41-7.04 10.02-13.7 10.02-10.4 0-15.61-5.71-15.61-17 0-9.64 5.52-15.86 15.1-15.86s14.66 6.22 14.66 18.59H91.3Zm13.01-5.2c-.13-4.63-3.17-6.85-6.41-6.85s-6.03 2.54-6.34 6.85h12.75Z"/><path fill="#fff" d="M40.86 69.26c-.47 3.95 2.69 7.12 5.82 7 2.99-.12 5.82-3.23 5.35-7-.71-.22-1.85-.46-3.12-.16-2.29.55-2.95 2.4-4.6 2.47-.77.03-1.94-.31-3.44-2.32l-.01.01Zm78.67 16.07v-9.07h9.77v9.07h-9.77Zm-.35-16.37 2.8-15.92h2.37l-2.8 15.92h-2.37Zm11.52 0c0-.21.12-1.3.14-1.59-.83 1.11-2.44 1.9-4.27 1.9-2.39 0-3.44-1.07-3.44-2.65 0-3.63 2.32-4.12 5.97-4.57 2.23-.26 2.84-.54 2.84-1.75 0-1.07-.76-1.45-2.23-1.45-1.82 0-2.7.88-3.06 2.25h-2.2c.47-2.42 2.04-4.1 5.69-4.1 3.01 0 4.17 1.16 4.17 3.25 0 .4-.05.88-.12 1.35l-1.3 7.37h-2.2l.01-.01Zm.9-6.02c-.4.38-1.26.47-2.72.69-2.42.36-3.29.92-3.29 2.54 0 1.07.57 1.4 1.8 1.4 1.73 0 3.53-1.21 3.89-2.94l.33-1.68-.01-.01Zm2.8 6.02 2.8-15.92h2.35l-1.11 6.45c1.11-1.75 2.7-2.49 4.24-2.49 2.54 0 3.96 1.85 3.96 4.69 0 4.65-2.84 7.58-6.3 7.58-1.52 0-2.87-.64-3.25-2.39l-.38 2.08h-2.31Zm9.74-6.9c0-2.37-.88-3.03-2.56-3.03-2.68 0-4.03 2.46-4.03 5.14 0 2.16 1.04 3.15 2.56 3.15 2.23 0 4.03-2.06 4.03-5.26Zm11.4-1.23c0-.14.02-.26.02-.38 0-1.23-.69-1.66-2.32-1.66-1.75 0-2.72.5-2.72 1.66 0 .85.71 1.18 2.25 1.52 3.1.71 4.62 1.11 4.62 3.36 0 2.13-2.04 3.93-5.74 3.93-3.03 0-4.76-1.3-4.76-3.41 0-.21 0-.43.05-.64h2.44c-.02.17-.05.33-.05.47 0 1.33 1.02 1.78 2.61 1.78 2.2 0 3.06-.85 3.06-1.87 0-.92-1.07-1.37-2.42-1.63-3.34-.66-4.41-1.56-4.41-3.1 0-2.16 1.71-3.86 5.43-3.86 3.06 0 4.27 1.16 4.27 3.13 0 .21-.02.47-.05.71h-2.28v-.01Z"/></svg>